<?xml version="1.0" encoding="UTF-8" standalone="no"?>
<!-- Created with Inkscape (http://www.inkscape.org/) -->

<svg
   xmlns:dc="http://purl.org/dc/elements/1.1/"
   xmlns:cc="http://creativecommons.org/ns#"
   xmlns:rdf="http://www.w3.org/1999/02/22-rdf-syntax-ns#"
   xmlns:svg="http://www.w3.org/2000/svg"
   xmlns="http://www.w3.org/2000/svg"
   xmlns:sodipodi="http://sodipodi.sourceforge.net/DTD/sodipodi-0.dtd"
   xmlns:inkscape="http://www.inkscape.org/namespaces/inkscape"
   width="210mm"
   height="297mm"
   id="svg2"
   version="1.1"
   inkscape:version="0.48.4 r"
   sodipodi:docname="ARCgestion.svg">
  <defs
     id="defs4">
    <clipPath
       id="clipPath3018"
       clipPathUnits="userSpaceOnUse">
      <path
         id="path3020"
         d="m 0,27.598 93.091,0 L 93.091,0 0,0 0,27.598 z" />
    </clipPath>
  </defs>
  <sodipodi:namedview
     id="base"
     pagecolor="#ffffff"
     bordercolor="#666666"
     borderopacity="1.0"
     inkscape:pageopacity="0.0"
     inkscape:pageshadow="2"
     inkscape:zoom="0.98994949"
     inkscape:cx="797.49064"
     inkscape:cy="462.94919"
     inkscape:document-units="px"
     inkscape:current-layer="layer1"
     showgrid="false"
     inkscape:window-width="1920"
     inkscape:window-height="1138"
     inkscape:window-x="-8"
     inkscape:window-y="-8"
     inkscape:window-maximized="1" />
  <metadata
     id="metadata7">
    <rdf:RDF>
      <cc:Work
         rdf:about="">
        <dc:format>image/svg+xml</dc:format>
        <dc:type
           rdf:resource="http://purl.org/dc/dcmitype/StillImage" />
        <dc:title />
      </cc:Work>
    </rdf:RDF>
  </metadata>
  <g
     inkscape:label="Calque 1"
     inkscape:groupmode="layer"
     id="layer1">
    <g
       clip-path="url(#clipPath3018)"
       id="g3016"
       transform="matrix(4.2880626,0,0,-4.2880626,81.45081,585.97785)">
      <g
         transform="translate(16.8975,19.1489)"
         id="g3022">
        <path
           id="path3024"
           style="fill:#050301;fill-opacity:1;fill-rule:nonzero;stroke:none"
           d="m 0,0 c 0,4.659 -3.79,8.449 -8.449,8.449 -4.659,0 -8.448,-3.79 -8.448,-8.449 l 5.051,0 c 0,1.873 1.524,3.397 3.397,3.397 1.866,0 3.384,-1.532 3.396,-3.395 L 0,0 z"
           inkscape:connector-curvature="0" />
      </g>
      <g
         transform="translate(36.4229,19.1489)"
         id="g3026">
        <path
           id="path3028"
           style="fill:#050301;fill-opacity:1;fill-rule:nonzero;stroke:none"
           d="m 0,0 c 0,4.659 -3.79,8.449 -8.449,8.449 -4.658,0 -8.448,-3.79 -8.448,-8.449 l 5.051,0 c 0,1.873 1.524,3.397 3.397,3.397 1.867,0 3.385,-1.532 3.396,-3.395 L 0,0 z"
           inkscape:connector-curvature="0" />
      </g>
      <g
         transform="translate(54.5996,19.1489)"
         id="g3030">
        <path
           id="path3032"
           style="fill:#050301;fill-opacity:1;fill-rule:nonzero;stroke:none"
           d="m 0,0 c 0,4.659 -3.789,8.449 -8.448,8.449 -4.658,0 -8.448,-3.79 -8.448,-8.449 l 5.05,0 c 0,1.873 1.525,3.397 3.398,3.397 1.866,0 3.384,-1.532 3.396,-3.395 L 0,0 z"
           inkscape:connector-curvature="0" />
      </g>
      <g
         transform="translate(8.4487,0.0703)"
         id="g3034">
        <path
           id="path3036"
           style="fill:#050301;fill-opacity:1;fill-rule:nonzero;stroke:none"
           d="m 0,0 c 4.495,0 8.439,3.241 8.439,8.518 0,0 0,6.152 -10e-4,9.124 l -5.052,0 0,-1.543 C 2.349,16.555 1.204,16.811 0,16.811 -4.63,16.811 -8.448,13.074 -8.448,8.404 -8.448,3.735 -4.63,0 0,0 m -0.027,4.457 c -2.179,0 -3.945,1.766 -3.945,3.945 0,2.179 1.766,3.945 3.945,3.945 2.179,0 3.944,-1.766 3.944,-3.945 0,-2.179 -1.765,-3.945 -3.944,-3.945"
           inkscape:connector-curvature="0" />
      </g>
      <path
         id="path3038"
         style="fill:#050301;fill-opacity:1;fill-rule:nonzero;stroke:none"
         d="m 19.527,17.712 5.051,0 0,-17.111 -5.051,0 0,17.111 z"
         inkscape:connector-curvature="0" />
      <g
         transform="translate(37.7109,17.7119)"
         id="g3040">
        <path
           id="path3042"
           style="fill:#050301;fill-opacity:1;fill-rule:nonzero;stroke:none"
           d="m 0,0 0.009,-9.129 c 0,-5.255 3.595,-8.583 8.441,-8.583 4.658,0 8.449,3.79 8.449,8.448 l -5.052,0 c 0,-1.873 -1.524,-3.396 -3.397,-3.396 -1.873,0 -3.396,1.523 -3.396,3.396 L 5.054,0 0,0 z"
           inkscape:connector-curvature="0" />
      </g>
      <g
         transform="translate(64.2568,25.0371)"
         id="g3044">
        <path
           id="path3046"
           style="fill:#050301;fill-opacity:1;fill-rule:evenodd;stroke:none"
           d="M 0,0 C -0.656,0.022 -1.089,-0.156 -1.355,-0.511 -1.712,-0.2 -2.289,0 -2.778,0 c -1.5,0 -2.277,-1 -2.277,-2.011 0,-0.7 0.377,-1.144 0.855,-1.533 -0.255,-0.078 -0.9,-0.5 -0.9,-1.055 0,-0.622 0.588,-0.767 0.856,-0.933 l 0,-0.023 c -0.5,0 -1.045,-0.344 -1.045,-1.067 0,-0.911 1.022,-1.378 2.578,-1.378 1.845,0 2.678,0.889 2.678,1.712 0,2.31 -3.8,1.044 -3.8,1.977 0,0.333 0.478,0.355 1.078,0.355 1.443,0 2.177,0.778 2.177,1.867 0,0.444 -0.134,0.778 -0.311,1.023 0.211,0.132 0.567,0.132 0.889,0.132 L 0,0 z m -1.845,-1.978 c 0,-0.533 -0.422,-0.955 -0.944,-0.955 -0.589,0 -1,0.422 -1,0.955 0,0.534 0.411,0.956 1,0.956 0.522,0 0.944,-0.422 0.944,-0.956 m -1.2,-3.799 c 1.333,0 1.745,-0.4 1.745,-0.667 0,-0.2 -0.3,-0.644 -1.188,-0.644 -1.157,0 -1.533,0.199 -1.533,0.644 0,0.245 0.221,0.667 0.976,0.667"
           inkscape:connector-curvature="0" />
      </g>
      <g
         transform="translate(69.7158,21.8149)"
         id="g3048">
        <path
           id="path3050"
           style="fill:#050301;fill-opacity:1;fill-rule:evenodd;stroke:none"
           d="m 0,0 0,0.567 c 0,1.389 -0.845,2.666 -2.355,2.655 -1.567,0 -2.511,-1.166 -2.511,-3 0,-1.833 0.944,-2.999 2.444,-2.999 1.11,0 1.889,0.355 2.422,1.177 l -1,0.622 c -0.345,-0.399 -0.645,-0.689 -1.288,-0.689 -0.646,0 -1.179,0.467 -1.2,1.667 L 0,0 z m -3.488,0.934 c 0.021,0.799 0.444,1.266 1.111,1.266 0.666,0 1.089,-0.467 1.11,-1.266 l -2.221,0 z"
           inkscape:connector-curvature="0" />
      </g>
      <g
         transform="translate(74.6318,24.1597)"
         id="g3052">
        <path
           id="path3054"
           style="fill:#050301;fill-opacity:1;fill-rule:evenodd;stroke:none"
           d="m 0,0 c -0.5,0.588 -1.267,0.877 -2.033,0.877 -1,0 -1.911,-0.6 -1.911,-1.677 0,-2.011 2.889,-1.656 2.889,-2.644 0,-0.389 -0.334,-0.656 -0.823,-0.656 -0.588,0 -1.021,0.389 -1.344,0.833 l -0.923,-0.689 c 0.512,-0.755 1.267,-1.166 2.19,-1.166 1.211,0 2.122,0.533 2.122,1.733 0,2.111 -2.89,1.689 -2.89,2.678 0,0.344 0.245,0.566 0.779,0.566 0.433,0 0.799,-0.311 1.078,-0.611 L 0,0 z"
           inkscape:connector-curvature="0" />
      </g>
      <g
         transform="translate(75.3096,24.9263)"
         id="g3056">
        <path
           id="path3058"
           style="fill:#050301;fill-opacity:1;fill-rule:evenodd;stroke:none"
           d="m 0,0 0,-1.111 0.8,0 0,-3.445 c 0,-0.822 0.399,-1.333 1.423,-1.333 0.377,0 0.711,0.045 1.088,0.089 l 0,1.133 C 3.11,-4.711 2.889,-4.778 2.678,-4.778 c -0.345,0 -0.5,0.089 -0.5,0.4 l 0,3.267 1.133,0 0,1.111 -1.133,0 0,1.911 -1.378,0 L 0.8,0 0,0 z"
           inkscape:connector-curvature="0" />
      </g>
      <path
         id="path3060"
         style="fill:#050301;fill-opacity:1;fill-rule:evenodd;stroke:none"
         d="m 81.245,27.281 -1.377,0 0,-1.289 1.377,0 0,1.289 z m 0,-2.355 -1.377,0 0,-5.778 1.377,0 0,5.778 z"
         inkscape:connector-curvature="0" />
      <g
         transform="translate(82.3359,22.0371)"
         id="g3062">
        <path
           id="path3064"
           style="fill:#050301;fill-opacity:1;fill-rule:evenodd;stroke:none"
           d="m 0,0 c 0,-1.833 0.945,-3 2.511,-3 1.567,0 2.511,1.167 2.511,3 0,1.833 -0.944,3 -2.511,3 C 0.945,3 0,1.833 0,0 m 3.645,0 c 0,-1.289 -0.367,-1.889 -1.134,-1.889 -0.766,0 -1.133,0.6 -1.133,1.889 0,1.289 0.367,1.889 1.133,1.889 0.767,0 1.134,-0.6 1.134,-1.889"
           inkscape:connector-curvature="0" />
      </g>
      <g
         transform="translate(89.7139,19.1484)"
         id="g3066">
        <path
           id="path3068"
           style="fill:#050301;fill-opacity:1;fill-rule:evenodd;stroke:none"
           d="M 0,0 0,4.167 C 0.233,4.433 0.688,4.777 1.289,4.777 1.756,4.777 2,4.533 2,3.755 L 2,0 l 1.377,0 0,3.956 c 0,1.177 -0.555,1.933 -1.711,1.933 -0.677,0 -1.266,-0.378 -1.777,-0.734 l 0,0.623 -1.267,0 L -1.378,0 0,0 z"
           inkscape:connector-curvature="0" />
      </g>
    </g>
  </g>
</svg>
